<svg xmlns="http://www.w3.org/2000/svg" viewBox="0 0 64 64">
  <rect width="64" height="64" rx="15" fill="#0c1c2b"/>
  <path d="M29 48h6v10h-6z" fill="#c79258"/>
  <path d="M32 12 21 29h6L16 42h7L11 53h42L41 42h7L37 29h6z" fill="#3c9871"/>
  <path d="m32 4 2.2 5.2 5.6.5-4.3 3.6 1.3 5.4-4.8-2.9-4.8 2.9 1.3-5.4-4.3-3.6 5.6-.5z" fill="#ffdd80"/>
  <path d="M23 30q9 5 18 0M20 42q12 6 24 0" fill="none" stroke="#f4db9a" stroke-width="2.5" stroke-linecap="round"/>
  <circle cx="28" cy="25" r="2" fill="#fff0bc"/><circle cx="36" cy="37" r="2.4" fill="#e76b5e"/><circle cx="26" cy="47" r="2.4" fill="#e76b5e"/>
</svg>
